<?xml version="1.0" standalone="no"?>
<!DOCTYPE svg PUBLIC "-//W3C//DTD SVG 20010904//EN"
 "http://www.w3.org/TR/2001/REC-SVG-20010904/DTD/svg10.dtd">
<svg version="1.0" xmlns="http://www.w3.org/2000/svg"
 width="612.000000pt" height="612.000000pt" viewBox="0 0 612.000000 612.000000"
 preserveAspectRatio="xMidYMid meet">

<g transform="translate(0.000000,612.000000) scale(0.100000,-0.100000)"
fill="#000000" stroke="none">
<path d="M2301 4774 c-50 -13 -155 -63 -148 -70 2 -2 25 4 52 12 119 37 272
-6 368 -104 109 -112 166 -258 174 -448 15 -353 -165 -663 -431 -739 -105 -31
-219 -7 -336 71 -14 9 5 -13 42 -49 37 -36 74 -79 83 -96 l16 -31 -48 0 -48 0
-237 413 -238 412 132 5 133 5 11 52 c6 29 9 55 6 58 -10 10 -462 5 -462 -5 0
-5 120 -217 266 -471 146 -254 268 -467 270 -473 4 -9 -45 -17 -183 -30 -103
-10 -196 -20 -205 -23 -13 -3 -18 -15 -18 -44 0 -34 3 -39 24 -39 13 0 318 29
677 65 935 93 1172 117 1832 182 l588 58 -3 45 -3 45 -115 13 c-63 8 -117 15
-119 17 -2 3 80 149 183 326 102 176 186 325 186 330 0 5 -115 9 -268 9 l-269
0 -31 39 c-43 54 -146 103 -284 136 -142 34 -227 32 -308 -8 -55 -26 -55 -26
-15 -19 171 29 306 -49 385 -223 15 -33 33 -84 39 -113 16 -77 14 -235 -5
-311 -21 -86 -74 -196 -116 -243 l-33 -36 -235 -22 -234 -22 -22 25 c-12 15
-32 52 -44 84 -23 61 -56 210 -49 218 3 2 21 2 41 -1 32 -6 36 -10 42 -43 14
-83 71 -169 141 -212 45 -28 50 -23 12 11 -40 35 -76 111 -84 179 l-5 48 53
-9 c83 -13 127 -12 154 6 39 26 66 89 66 156 1 95 -42 152 -124 165 -23 3 -54
8 -69 11 l-28 5 26 51 c36 71 96 132 157 159 52 24 52 24 20 27 -38 4 -105
-24 -151 -63 -34 -29 -112 -136 -112 -154 0 -6 -6 -11 -12 -11 -28 0 -261 39
-266 45 -3 3 40 5 96 5 l101 0 30 54 c17 29 31 56 31 59 0 4 -61 8 -136 9
l-137 3 -16 60 c-57 206 -176 331 -372 389 -105 32 -272 66 -318 65 -25 0 -70
-7 -100 -15z m2254 -651 c-9 -16 -89 -154 -179 -308 l-162 -280 -45 -7 c-24
-4 -47 -7 -52 -5 -4 1 61 119 144 262 83 143 153 266 156 273 4 9 -11 12 -55
12 -66 0 -66 0 -77 48 l-7 32 147 0 146 0 -16 -27z"/>
<path d="M2190 4577 c-19 -7 -44 -19 -55 -25 -17 -11 -15 -12 17 -6 52 8 136
-19 184 -60 140 -120 177 -409 79 -624 -81 -178 -255 -257 -390 -178 l-50 30
28 -34 c92 -109 212 -138 332 -81 146 69 249 253 262 470 13 222 -81 430 -223
492 -58 26 -139 33 -184 16z"/>
<path d="M2100 4311 c-114 -60 -140 -278 -45 -373 60 -60 146 -40 199 46 25
40 30 60 34 129 3 71 0 88 -20 127 -24 48 -77 90 -112 90 -12 0 -37 -8 -56
-19z"/>
<path d="M1700 4064 c0 -9 100 -184 106 -184 2 0 3 42 1 93 l-2 92 -53 3 c-28
2 -52 0 -52 -4z"/>
<path d="M4306 3331 c-78 -11 -86 -28 -86 -182 l0 -129 40 5 c22 3 58 7 80 10
l41 5 -3 -67 -3 -68 -32 -3 c-28 -3 -33 0 -33 17 0 18 -6 21 -45 21 l-45 0 0
-43 c0 -71 15 -82 105 -79 136 4 145 16 145 183 l0 130 -80 -7 -80 -7 0 67 0
66 35 0 c28 0 35 -4 35 -20 0 -21 23 -26 68 -14 18 5 22 13 22 45 0 73 -35 87
-164 70z"/>
<path d="M3803 3279 c-51 -15 -63 -49 -63 -185 l0 -116 83 3 82 4 -2 -59 c-2
-34 -8 -63 -15 -68 -23 -15 -53 -4 -56 20 -3 19 -8 23 -25 18 -12 -3 -33 -6
-46 -6 -22 0 -23 -3 -19 -45 8 -65 20 -75 92 -75 75 0 133 15 145 38 7 14 16
207 12 261 -1 11 -17 12 -81 7 l-80 -7 0 60 c0 49 4 62 19 71 31 16 49 12 53
-12 2 -13 9 -23 16 -22 6 1 26 2 42 3 29 1 30 2 30 51 0 38 -4 52 -19 60 -24
12 -124 12 -168 -1z"/>
<path d="M3367 3239 c-38 -4 -75 -10 -83 -13 -12 -4 -14 -49 -14 -254 0 -137
2 -251 5 -253 3 -4 218 15 243 20 1 1 2 19 2 42 l0 40 -80 -7 -80 -7 0 65 0
65 60 7 60 7 0 40 0 41 -57 -4 -58 -3 0 65 c0 58 2 65 20 67 11 1 46 5 78 8
l57 6 0 40 0 39 -42 -1 c-24 -1 -74 -5 -111 -10z"/>
<path d="M2998 3203 l-28 -4 -1 -107 -1 -107 -35 103 -35 103 -42 -3 -41 -3
-3 -258 -2 -258 42 3 43 3 5 104 5 104 33 -102 c31 -94 36 -102 55 -97 12 3
32 6 45 6 l22 0 0 260 c0 287 6 263 -62 253z"/>
<path d="M2540 3158 c-167 -17 -160 -14 -160 -59 0 -39 0 -39 40 -39 l40 0 0
-216 0 -216 23 6 c12 3 32 6 44 6 23 0 23 0 25 218 l3 217 38 3 c36 3 37 4 37
42 0 21 -3 40 -7 43 -5 2 -42 0 -83 -5z"/>
<path d="M2088 3113 c-16 -2 -28 -10 -28 -16 -2 -50 1 -501 3 -502 1 -1 21 0
45 3 l42 4 -2 256 c-3 279 0 264 -60 255z"/>
<path d="M1713 3078 l-93 -10 0 -259 0 -259 23 0 c12 0 32 3 45 6 21 6 22 11
22 115 l0 109 39 0 c21 0 53 3 70 6 29 6 31 10 31 47 l0 40 -70 -7 -70 -6 0
64 c0 63 0 64 31 70 17 3 46 6 64 6 55 0 65 8 65 51 0 45 8 44 -157 27z"/>
<path d="M4200 2694 c-267 -27 -1443 -144 -2482 -246 l-218 -22 0 -42 0 -43
53 -5 c28 -3 246 -15 482 -26 237 -12 439 -23 450 -25 20 -4 53 -60 444 -742
64 -111 119 -202 122 -203 6 0 292 487 600 1023 79 136 120 199 134 202 11 2
193 20 405 40 212 20 395 38 408 41 18 4 22 11 22 44 l0 40 -47 -1 c-27 -1
-194 -16 -373 -35z m-584 -186 c-13 -24 -93 -162 -178 -308 -85 -146 -198
-341 -252 -435 -131 -226 -133 -229 -139 -219 -15 26 -384 667 -441 767 -37
65 -66 120 -64 122 2 2 21 5 42 7 47 4 29 30 291 -426 171 -296 179 -307 192
-285 8 13 116 200 241 414 221 380 228 390 262 396 74 13 73 14 46 -33z m-658
-240 c3 -35 1 -38 -25 -39 -21 -1 -23 -3 -8 -6 37 -9 40 -23 5 -23 -30 0 -35
3 -36 25 -2 20 3 25 22 25 13 0 24 6 24 13 0 21 -12 28 -27 16 -10 -9 -13 -7
-13 10 0 18 5 22 28 19 23 -3 27 -8 30 -40z m82 -14 c0 -54 0 -55 -27 -52 -25
3 -28 8 -31 42 -4 52 3 66 33 66 24 0 25 -3 25 -56z m90 16 c0 -34 -3 -40 -22
-41 l-23 -2 23 -4 c32 -6 27 -23 -8 -23 -25 0 -30 4 -30 25 0 18 5 25 20 25
13 0 20 7 20 20 0 22 -16 27 -23 8 -2 -7 -8 -10 -12 -6 -14 14 5 38 30 38 23
0 25 -4 25 -40z m88 -17 l3 -53 -30 0 c-24 0 -31 4 -31 20 0 22 16 27 23 8 2
-7 8 -9 13 -5 5 5 1 15 -10 23 -17 12 -18 14 -3 14 9 0 17 7 17 15 0 18 -17
20 -23 3 -2 -7 -8 -10 -12 -6 -15 14 5 39 27 36 20 -3 23 -10 26 -55z"/>
<path d="M3000 2255 c0 -19 5 -35 10 -35 6 0 10 16 10 35 0 19 -4 35 -10 35
-5 0 -10 -16 -10 -35z"/>
</g>
</svg>
